<?xml version="1.0" encoding="utf-8"?>
<!-- Generator: Adobe Illustrator 22.1.0, SVG Export Plug-In . SVG Version: 6.00 Build 0)  -->
<svg version="1.1" id="Ebene_1" xmlns="http://www.w3.org/2000/svg" xmlns:xlink="http://www.w3.org/1999/xlink" x="0px" y="0px"
	 viewBox="0 0 3654.8 2683.3" style="enable-background:new 0 0 3654.8 2683.3;" xml:space="preserve">
<style type="text/css">
	.st0{fill:#FFFFFF;}
</style>
<path class="st0" d="M273.4,1666.9l-28.1-16.2l26.5-11.7c3.4-1.5,4.9-5.5,3.4-8.9c-1.5-3.4-5.5-5-8.9-3.5l-35.6,15.8l-22.4-12.9
	l38.8-17.1c2.5-1.1,4.1-3.5,4.1-6.2c0-2.7-1.6-5.1-4.1-6.2l-36.7-16.2l11.2-6.5l9-5.2l35.6,15.8c3.4,1.5,7.4-0.1,8.9-3.5
	c1.5-3.4,0-7.4-3.4-8.9l-26.6-11.8l28.1-16.2c3.2-1.9,4.4-6,2.5-9.3c-1.9-3.2-6-4.4-9.3-2.5l-28.1,16.2l3.1-28.9
	c0.4-3.7-2.3-7-6-7.4c-3.7-0.4-7.1,2.2-7.5,6l-4.1,38.7l-9,5.2l-13.1,7.5l4.7-43.5c0.3-2.7-1-5.3-3.4-6.6c-2.3-1.3-4.8-1.2-7,0.4
	l-32.3,24V1525l31-22.9c3-2.2,3.4-6.5,1.2-9.5c-2.2-3-6-3.7-9.1-1.5l-23,17.1v-32.4c0-3.8-2.7-6.8-6.5-6.8c-3.8,0-6.5,3-6.5,6.8
	v32.4l-24.3-17.1c-3-2.2-7.6-1.5-9.9,1.5c-2.2,3-1,7.3,2,9.5l32.1,22.9v23.8l-35.7-25.6c-2.2-1.6-5.4-1.7-7.8-0.4
	c-2.3,1.3-3.8,3.9-3.5,6.6l4.5,42.2l-19.9-11.4l-4.2-38.7c-0.4-3.7-3.8-6.3-7.5-5.9c-3.7,0.4-6.4,3.7-6,7.4l3.1,28.8l-28.1-16.2
	c-3.2-1.9-7.4-0.8-9.3,2.5c-1.9,3.2-0.8,7.4,2.5,9.3l28.1,16.2l-26.6,11.8c-3.4,1.5-5,5.5-3.4,9c1.5,3.4,5.5,5,9,3.4l35.6-15.9
	l19.3,11.2l-38,16.7c-2.5,1.1-4.1,3.5-4.1,6.2c0,2.7,1.6,5.1,4.1,6.2l40.1,17.7l-21.5,12.4l-35.5-15.7c-3.4-1.5-7.4,0.1-8.9,3.6
	c-1.5,3.4,0,7.4,3.4,8.9l26.5,11.7L39,1666.9c-3.2,1.9-4.4,6-2.5,9.3c1.9,3.2,6,4.4,9.3,2.5l28.1-16.2l-3,29c-0.4,3.7,2.3,7.1,6,7.5
	c3.7,0.4,7.1-2.3,7.5-6l4.1-38.8l19.6-11.3l-4.3,39.9c-0.3,2.7,1,5.3,3.4,6.6c2.3,1.3,6,1.2,8.1-0.4l35.7-25.6v26l-32.2,22.9
	c-3,2.2-4,6.5-1.8,9.5c2.2,3,7,3.7,10,1.5l24-17.1v32.4c0,3.8,2.7,6.8,6.5,6.8c3.8,0,6.5-3,6.5-6.8v-32.4l23,17.1
	c3,2.2,7,1.5,9.2-1.5c2.2-3,1.9-7.3-1.1-9.5l-31.1-22.9v-24.4l32.3,24c2.2,1.6,4.9,1.7,7.2,0.4c2.3-1.3,3.5-3.9,3.3-6.6l-4.5-41.2
	l21.9,12.6l4.1,38.7c0.4,3.7,3.8,6.4,7.5,6c3.7-0.4,6.4-3.7,6-7.4l-3.1-28.9l28.1,16.2c3.2,1.9,7.4,0.8,9.3-2.5
	C277.7,1672.9,276.6,1668.8,273.4,1666.9z M193.8,1620.9l-24-13.8l22.6-13l3.5-2l31.7,14L193.8,1620.9z M187.2,1581.4l-1.6,0.9
	l-1,0.8l-20.7,12.2v-24.4v-6.9l27.9-20.7L187.2,1581.4z M119.6,1543.3l31.3,22.4v5.3v24.4l-21.9-12.3l-1.8-0.8l-3.7-2.2
	L119.6,1543.3z M82.7,1606l33-14.5l4.4,2.5l22.7,13.1l-24.9,14.4L82.7,1606z M122.6,1634.3l6.3-3.2l22-12.3v24.5v3l-31.3,22.4
	L122.6,1634.3z M163.9,1648.1v-4.7v-24.5l20.7,12.2l3,1.9l4.2,35.8L163.9,1648.1z"/>
<path class="st0" d="M2679.1,2071.2L2651,2055l26.5-11.7c3.4-1.5,4.9-5.5,3.4-8.9c-1.5-3.4-5.5-5-8.9-3.5l-35.6,15.8l-22.4-12.9
	l38.8-17.1c2.5-1.1,4.1-3.5,4.1-6.2c0-2.7-1.6-5.1-4.1-6.2l-36.7-16.2l11.2-6.5l9-5.2l35.6,15.8c3.4,1.5,7.4-0.1,8.9-3.5
	c1.5-3.4,0-7.4-3.4-8.9l-26.6-11.8l28.1-16.2c3.2-1.9,4.4-6,2.5-9.3c-1.9-3.2-6-4.4-9.3-2.5l-28.1,16.2l3.1-28.9
	c0.4-3.7-2.3-7-6-7.4c-3.7-0.4-7.1,2.2-7.5,6l-4.1,38.7l-9,5.2l-13.1,7.5l4.7-43.5c0.3-2.7-1-5.3-3.4-6.6c-2.3-1.3-4.8-1.2-7,0.4
	l-32.3,24v-22.1l31-22.9c3-2.2,3.4-6.5,1.2-9.5c-2.2-3-6-3.7-9.1-1.5l-23,17.1v-32.4c0-3.8-2.7-6.8-6.5-6.8c-3.8,0-6.5,3-6.5,6.8
	v32.4l-24.3-17.1c-3-2.2-7.6-1.5-9.9,1.5c-2.2,3-1,7.3,2,9.5l32.1,22.9v23.8l-35.7-25.6c-2.2-1.6-5.4-1.7-7.8-0.4
	c-2.3,1.3-3.8,3.9-3.5,6.6l4.5,42.2l-19.9-11.4l-4.2-38.7c-0.4-3.7-3.8-6.3-7.5-5.9c-3.7,0.4-6.4,3.7-6,7.4l3.1,28.8l-28.1-16.2
	c-3.2-1.9-7.4-0.8-9.3,2.5c-1.9,3.2-0.8,7.4,2.5,9.3l28.1,16.2l-26.6,11.8c-3.4,1.5-5,5.5-3.4,9c1.5,3.4,5.5,5,9,3.4l35.6-15.9
	l19.3,11.2l-38,16.7c-2.5,1.1-4.1,3.5-4.1,6.2c0,2.7,1.6,5.1,4.1,6.2l40.1,17.7l-21.5,12.4l-35.5-15.7c-3.4-1.5-7.4,0.1-8.9,3.6
	c-1.5,3.4,0,7.4,3.4,8.9l26.5,11.7l-28.1,16.2c-3.2,1.9-4.4,6-2.5,9.3s6,4.4,9.3,2.5l28.1-16.2l-3,28.9c-0.4,3.7,2.3,7.1,6,7.5
	c3.7,0.4,7.1-2.3,7.5-6l4.1-38.8l19.6-11.3l-4.3,39.9c-0.3,2.7,1,5.3,3.4,6.6c2.3,1.3,6,1.2,8.1-0.4l35.7-25.6v26l-32.2,22.9
	c-3,2.2-4,6.5-1.8,9.5c2.2,3,7,3.7,10,1.5l24-17.1v32.4c0,3.8,2.7,6.8,6.5,6.8c3.8,0,6.5-3,6.5-6.8v-32.4l23,17.1
	c3,2.2,7,1.5,9.2-1.5c2.2-3,1.9-7.3-1.1-9.5l-31.1-22.9v-24.4l32.3,24c2.2,1.6,4.9,1.7,7.2,0.4c2.3-1.3,3.5-3.9,3.3-6.6l-4.5-41.2
	l21.9,12.6l4.1,38.7c0.4,3.7,3.8,6.4,7.5,6c3.7-0.4,6.4-3.7,6-7.4l-3.1-28.9l28.1,16.2c3.2,1.9,7.4,0.8,9.3-2.5
	C2683.4,2077.2,2682.3,2073.1,2679.1,2071.2z M2599.5,2025.3l-24-13.8l22.6-13l3.5-2l31.7,14L2599.5,2025.3z M2592.9,1985.7
	l-1.6,0.9l-1,0.8l-20.7,12.2v-24.4v-6.9l27.9-20.7L2592.9,1985.7z M2525.3,1947.6l31.3,22.4v5.3v24.4l-21.9-12.3l-1.8-0.8l-3.7-2.2
	L2525.3,1947.6z M2488.4,2010.3l33-14.5l4.4,2.5l22.7,13.1l-24.9,14.4L2488.4,2010.3z M2528.3,2038.7l6.3-3.2l22-12.3v24.5v3
	l-31.3,22.4L2528.3,2038.7z M2569.6,2052.4v-4.7v-24.5l20.7,12.2l3,1.9l4.2,35.8L2569.6,2052.4z"/>
<path class="st0" d="M731.4,730.2L703.3,714l26.5-11.7c3.4-1.5,4.9-5.5,3.4-8.9c-1.5-3.4-5.5-5-8.9-3.5l-35.6,15.8l-22.4-12.9
	l38.8-17.1c2.5-1.1,4.1-3.5,4.1-6.2c0-2.7-1.6-5.1-4.1-6.2L668.5,647l11.2-6.5l9-5.2l35.6,15.8c3.4,1.5,7.4-0.1,8.9-3.5
	c1.5-3.4,0-7.4-3.4-8.9l-26.6-11.8l28.1-16.2c3.2-1.9,4.4-6,2.5-9.3c-1.9-3.2-6-4.4-9.3-2.5l-28.1,16.2l3.1-28.9
	c0.4-3.7-2.3-7-6-7.4c-3.7-0.4-7.1,2.2-7.5,6l-4.1,38.7l-9,5.2l-13.1,7.5l4.7-43.5c0.3-2.7-1-5.3-3.4-6.6c-2.3-1.3-4.8-1.2-7,0.4
	l-32.3,24v-22.1l31-22.9c3-2.2,3.4-6.5,1.2-9.5c-2.2-3-6-3.7-9.1-1.5l-23,17.1v-32.4c0-3.8-2.7-6.8-6.5-6.8s-6.5,3-6.5,6.8v32.4
	l-24.3-17.1c-3-2.2-7.6-1.5-9.9,1.5c-2.2,3-1,7.3,2,9.5l32.1,22.9v23.8l-35.7-25.6c-2.2-1.6-5.4-1.7-7.8-0.4
	c-2.3,1.3-3.8,3.9-3.5,6.6l4.5,42.2l-19.9-11.4l-4.2-38.7c-0.4-3.7-3.8-6.3-7.5-5.9c-3.7,0.4-6.4,3.7-6,7.4l3.1,28.8l-28.1-16.2
	c-3.2-1.9-7.4-0.8-9.3,2.5c-1.9,3.2-0.8,7.4,2.5,9.3l28.1,16.2l-26.6,11.8c-3.4,1.5-5,5.5-3.4,9c1.5,3.4,5.5,5,9,3.4l35.6-15.9
	l19.3,11.2l-38,16.7c-2.5,1.1-4.1,3.5-4.1,6.2c0,2.7,1.6,5.1,4.1,6.2l40.1,17.7l-21.5,12.4l-35.5-15.7c-3.4-1.5-7.4,0.1-8.9,3.6
	c-1.5,3.4,0,7.4,3.4,8.9l26.5,11.7L497,730.3c-3.2,1.9-4.4,6-2.5,9.3c1.9,3.2,6,4.4,9.3,2.5l28.1-16.2l-3,29c-0.4,3.7,2.3,7.1,6,7.5
	c3.7,0.4,7.1-2.3,7.5-6l4.1-38.8l19.6-11.3l-4.3,39.9c-0.3,2.7,1,5.3,3.4,6.6c2.3,1.3,6,1.2,8.1-0.4l35.7-25.6v26l-32.2,22.9
	c-3,2.2-4,6.5-1.8,9.5c2.2,3,7,3.7,10,1.5l24-17.1v32.4c0,3.8,2.7,6.8,6.5,6.8s6.5-3,6.5-6.8v-32.4l23,17.1c3,2.2,7,1.5,9.2-1.5
	c2.2-3,1.9-7.3-1.1-9.5l-31.1-22.9v-24.4l32.3,24c2.2,1.6,4.9,1.7,7.2,0.4c2.3-1.3,3.5-3.9,3.3-6.6l-4.5-41.2l21.9,12.6l4.1,38.7
	c0.4,3.7,3.8,6.4,7.5,6c3.7-0.4,6.4-3.7,6-7.4l-3.1-28.9l28.1,16.2c3.2,1.9,7.4,0.8,9.3-2.5C735.7,736.3,734.6,732.1,731.4,730.2z
	 M651.8,684.3l-24-13.8l22.6-13l3.5-2l31.7,14L651.8,684.3z M645.2,644.7l-1.6,0.9l-1,0.8l-20.7,12.2v-24.4v-6.9l27.9-20.7
	L645.2,644.7z M577.6,606.6l31.3,22.4v5.3v24.4L587,646.4l-1.8-0.8l-3.7-2.2L577.6,606.6z M540.6,669.4l33-14.5l4.4,2.5l22.7,13.1
	l-24.9,14.4L540.6,669.4z M580.6,697.7l6.3-3.2l22-12.3v24.5v3l-31.3,22.4L580.6,697.7z M621.9,711.4v-4.7v-24.5l20.7,12.2l3,1.9
	l4.2,35.8L621.9,711.4z"/>
<path class="st0" d="M2380.1,383.3l-28.1-16.2l26.5-11.7c3.4-1.5,4.9-5.5,3.4-8.9c-1.5-3.4-5.5-5-8.9-3.5l-35.6,15.8l-22.4-12.9
	l38.8-17.1c2.5-1.1,4.1-3.5,4.1-6.2c0-2.7-1.6-5.1-4.1-6.2l-36.7-16.2l11.2-6.5l9-5.2l35.6,15.8c3.4,1.5,7.4-0.1,8.9-3.5
	c1.5-3.4,0-7.4-3.4-8.9l-26.6-11.8l28.1-16.2c3.2-1.9,4.4-6,2.5-9.3c-1.9-3.2-6-4.4-9.3-2.5l-28.1,16.2l3.1-28.9
	c0.4-3.7-2.3-7-6-7.4c-3.7-0.4-7.1,2.2-7.5,6l-4.1,38.7l-9,5.2l-13.1,7.5l4.7-43.5c0.3-2.7-1-5.3-3.4-6.6c-2.3-1.3-4.8-1.2-7,0.4
	l-32.3,24v-22.1l31-22.9c3-2.2,3.4-6.5,1.2-9.5c-2.2-3-6-3.7-9.1-1.5l-23,17.1v-32.4c0-3.8-2.7-6.8-6.5-6.8c-3.8,0-6.5,3-6.5,6.8
	v32.4l-24.3-17.1c-3-2.2-7.6-1.5-9.9,1.5c-2.2,3-1,7.3,2,9.5l32.1,22.9v23.8l-35.7-25.6c-2.2-1.6-5.4-1.7-7.8-0.4
	c-2.3,1.3-3.8,3.9-3.5,6.6l4.5,42.2l-19.9-11.4l-4.2-38.7c-0.4-3.7-3.8-6.3-7.5-5.9c-3.7,0.4-6.4,3.7-6,7.4l3.1,28.8l-28.1-16.2
	c-3.2-1.9-7.4-0.8-9.3,2.5c-1.9,3.2-0.8,7.4,2.5,9.3l28.1,16.2l-26.6,11.8c-3.4,1.5-5,5.5-3.4,9c1.5,3.4,5.5,5,9,3.4l35.6-15.9
	l19.3,11.2l-38,16.7c-2.5,1.1-4.1,3.5-4.1,6.2c0,2.7,1.6,5.1,4.1,6.2l40.1,17.7l-21.5,12.4l-35.5-15.7c-3.4-1.5-7.4,0.1-8.9,3.6
	c-1.5,3.4,0,7.4,3.4,8.9l26.5,11.7l-28.1,16.2c-3.2,1.9-4.4,6-2.5,9.3s6,4.4,9.3,2.5l28.1-16.2l-3,29c-0.4,3.7,2.3,7.1,6,7.5
	c3.7,0.4,7.1-2.3,7.5-6l4.1-38.8l19.6-11.3l-4.3,39.9c-0.3,2.7,1,5.3,3.4,6.6c2.3,1.3,6,1.2,8.1-0.4l35.7-25.6v26l-32.2,22.9
	c-3,2.2-4,6.5-1.8,9.5c2.2,3,7,3.7,10,1.5l24-17.1v32.4c0,3.8,2.7,6.8,6.5,6.8c3.8,0,6.5-3,6.5-6.8v-32.4l23,17.1
	c3,2.2,7,1.5,9.2-1.5c2.2-3,1.9-7.3-1.1-9.5l-31.1-22.9v-24.4l32.3,24c2.2,1.6,4.9,1.7,7.2,0.4c2.3-1.3,3.5-3.9,3.3-6.6l-4.5-41.2
	l21.9,12.6l4.1,38.7c0.4,3.7,3.8,6.4,7.5,6c3.7-0.4,6.4-3.7,6-7.4l-3.1-28.9l28.1,16.2c3.2,1.9,7.4,0.8,9.3-2.5
	C2384.4,389.3,2383.3,385.2,2380.1,383.3z M2300.4,337.3l-24-13.8l22.6-13l3.5-2l31.7,14L2300.4,337.3z M2293.9,297.7l-1.6,0.9
	l-1,0.8l-20.7,12.2v-24.4v-6.9l27.9-20.7L2293.9,297.7z M2226.3,259.7l31.3,22.4v5.3v24.4l-21.9-12.3l-1.8-0.8l-3.7-2.2
	L2226.3,259.7z M2189.3,322.4l33-14.5l4.4,2.5l22.7,13.1l-24.9,14.4L2189.3,322.4z M2229.3,350.7l6.3-3.2l22-12.3v24.5v3l-31.3,22.4
	L2229.3,350.7z M2270.6,364.5v-4.7v-24.5l20.7,12.2l3,1.9l4.2,35.8L2270.6,364.5z"/>
<path class="st0" d="M1922.9,2604.9l-28.1-16.2l26.5-11.7c3.4-1.5,4.9-5.5,3.4-8.9s-5.5-5-8.9-3.5l-35.6,15.8l-22.4-12.9l38.8-17.1
	c2.5-1.1,4.1-3.5,4.1-6.2c0-2.7-1.6-5.1-4.1-6.2l-36.7-16.2l11.2-6.5l9-5.2l35.6,15.8c3.4,1.5,7.4-0.1,8.9-3.5
	c1.5-3.4,0-7.4-3.4-8.9l-26.6-11.8l28.1-16.2c3.2-1.9,4.4-6,2.5-9.3s-6-4.4-9.3-2.5l-28.1,16.2l3.1-28.9c0.4-3.7-2.3-7-6-7.4
	c-3.7-0.4-7.1,2.2-7.5,6l-4.1,38.7l-9,5.2l-13.1,7.5l4.7-43.5c0.3-2.7-1-5.3-3.4-6.6s-4.8-1.2-7,0.4l-32.3,24V2463l31-22.9
	c3-2.2,3.4-6.5,1.2-9.5s-6-3.7-9.1-1.5l-23,17.1v-32.4c0-3.8-2.7-6.8-6.5-6.8s-6.5,3-6.5,6.8v32.4l-24.3-17.1
	c-3-2.2-7.6-1.5-9.9,1.5c-2.2,3-1,7.3,2,9.5l32.1,22.9v23.8l-35.7-25.6c-2.2-1.6-5.4-1.7-7.8-0.4c-2.3,1.3-3.8,3.9-3.5,6.6l4.5,42.2
	l-19.9-11.4l-4.2-38.7c-0.4-3.7-3.8-6.3-7.5-5.9c-3.7,0.4-6.4,3.7-6,7.4l3.1,28.8l-28.1-16.2c-3.2-1.9-7.4-0.8-9.3,2.5
	c-1.9,3.2-0.8,7.4,2.5,9.3l28.1,16.2l-26.6,11.8c-3.4,1.5-5,5.5-3.4,9s5.5,5,9,3.4l35.6-15.9l19.3,11.2l-38,16.7
	c-2.5,1.1-4.1,3.5-4.1,6.2c0,2.7,1.6,5.1,4.1,6.2l40.1,17.7l-21.5,12.4l-35.5-15.7c-3.4-1.5-7.4,0.1-8.9,3.6s0,7.4,3.4,8.9
	l26.5,11.7l-28.1,16.2c-3.2,1.9-4.4,6-2.5,9.3c1.9,3.2,6,4.4,9.3,2.5l28.1-16.2l-3,29c-0.4,3.7,2.3,7.1,6,7.5c3.7,0.4,7.1-2.3,7.5-6
	l4.1-38.8l19.6-11.3l-4.3,39.9c-0.3,2.7,1,5.3,3.4,6.6c2.3,1.3,6,1.2,8.1-0.4l35.7-25.6v26l-32.2,22.9c-3,2.2-4,6.5-1.8,9.5
	c2.2,3,7,3.7,10,1.5l24-17.1v32.4c0,3.8,2.7,6.8,6.5,6.8s6.5-3,6.5-6.8v-32.4l23,17.1c3,2.2,7,1.5,9.2-1.5c2.2-3,1.9-7.3-1.1-9.5
	l-31.1-22.9v-24.4l32.3,24c2.2,1.6,4.9,1.7,7.2,0.4c2.3-1.3,3.5-3.9,3.3-6.6l-4.5-41.2l21.9,12.6l4.1,38.7c0.4,3.7,3.8,6.4,7.5,6
	c3.7-0.4,6.4-3.7,6-7.4l-3.1-28.9l28.1,16.2c3.2,1.9,7.4,0.8,9.3-2.5C1927.3,2610.9,1926.1,2606.8,1922.9,2604.9z M1843.3,2558.9
	l-24-13.8l22.6-13l3.5-2l31.7,14L1843.3,2558.9z M1836.7,2519.4l-1.6,0.9l-1,0.8l-20.7,12.2v-24.4v-6.9l27.9-20.7L1836.7,2519.4z
	 M1769.1,2481.3l31.3,22.4v5.3v24.4l-21.9-12.3l-1.8-0.8l-3.7-2.2L1769.1,2481.3z M1732.2,2544l33-14.5l4.4,2.5l22.7,13.1
	l-24.9,14.4L1732.2,2544z M1772.1,2572.3l6.3-3.2l22-12.3v24.6v3l-31.3,22.4L1772.1,2572.3z M1813.4,2586.1v-4.7v-24.5l20.7,12.2
	l3,1.9l4.2,35.8L1813.4,2586.1z"/>
</svg>
