<svg   width="54" height="54" xmlns="http://www.w3.org/2000/svg" xmlns:svg="http://www.w3.org/2000/svg">
 <style type="text/css">.st0 {
  fill: #E32232;
  }

  .st1 {
  fill: #FFFFFF;
  }</style>
  <g>
    <g stroke="null" id="svg_1">
     <path stroke="null" class="st0" d="m53.83178,27.03816c0,-14.81378 -12.04132,-26.81926 -26.91589,-26.81926c-14.87457,0 -26.91589,12.00548 -26.91589,26.81926c0,14.81378 12.04132,26.81926 26.91589,26.81926c14.87457,0 26.91589,-12.00548 26.91589,-26.81926" id="svg_2" fill="black"></path>
     <path stroke="null" class="st1" d="m23.87014,34.19933c-1.1333,-0.84249 -2.54993,-1.19353 -3.82489,-1.12332c-1.27496,0.07021 -1.91244,0.9829 -1.91244,0.9829c-0.56665,-0.9829 -1.77078,-1.61477 -3.54156,-1.61477c-2.90409,0 -5.73733,1.33395 -8.00393,1.33395c-2.19577,0 -3.75406,-1.33395 -3.68322,-3.79121c0.07083,-4.21245 3.68322,-8.07386 6.37481,-9.75884c1.55829,-0.9829 2.83325,-1.26374 3.68322,-1.19353c0.63748,0.07021 1.34579,0.77228 0.92081,1.82539c-0.70832,1.54457 -1.62912,1.40415 -1.62912,0.70208c0,-0.49146 0.35416,-0.77228 0.56665,-0.9127c0.14166,-0.07021 0.42499,-0.14041 0.56665,-0.14041c0.14166,-0.14041 0.21249,-0.9829 -0.84998,-0.70208c-1.1333,0.28083 -2.40826,1.33395 -3.68322,2.73809c-1.27496,1.40415 -3.25824,4.07203 -3.75406,6.81013c-0.21249,1.26374 -0.07083,3.65079 2.97492,3.58059c2.62076,0 6.44565,-1.75519 9.91638,-1.68498c1.34579,0 2.54993,0.35103 3.47073,0.9829c0.99164,0.63187 2.05411,1.40415 2.40826,1.9658m0.84998,-7.65262l0.56665,0c0,0 -2.69159,3.86141 -4.17904,3.65079c-0.84998,-0.07021 -0.56665,-1.12332 -0.56665,-1.12332s-1.20413,1.40415 -2.2666,1.12332c-0.99164,-0.28083 -0.35416,-1.8956 -0.35416,-1.8956c-0.14166,0.07021 -2.2666,2.45726 -3.75406,1.8956c-1.55829,-0.63187 -0.77915,-2.59767 -0.42499,-3.22954c0.28333,-0.49146 0.49582,-0.9829 0.49582,-0.9829s-0.21249,0.07021 -0.35416,0.07021c-0.21249,0 -0.42499,0.07021 -0.42499,0.07021s-0.70832,1.19353 -1.20413,1.82539c-0.42499,0.63187 -2.40826,2.66788 -3.54156,2.24664c-1.1333,-0.42125 -0.84998,-1.9658 -0.21249,-3.22954c1.06247,-2.03602 3.47073,-4.56349 4.95819,-4.14224c1.48745,0.35103 0.28333,2.8083 0.28333,2.8083s0.28333,0.07021 0.99164,-0.42125c0.99164,-0.70208 2.40826,-2.59767 3.82489,-2.31685c0.70832,0.07021 1.34579,0.77228 0.42499,2.10623c-0.28333,0.42125 -0.77915,0.84249 -1.1333,0.42125c-0.21249,-0.21062 0,-0.63187 0.21249,-0.9829c0.35416,-0.42125 0.77915,-0.35103 0.77915,-0.35103s0.21249,-0.56166 -0.35416,-0.56166c-0.49582,0 -1.77078,1.19353 -2.4791,2.31685c-0.63748,1.05311 -1.62912,2.87851 -0.63748,3.29975c0.92081,0.35103 2.62076,-1.68498 3.47073,-2.73809c0.77915,-1.05311 2.62076,-3.51037 4.17904,-3.58059c0.49582,0 0.84998,0.42125 0.84998,0.42125l0.14166,-0.28083l1.55829,0c0,0 -2.90409,4.77411 -3.11658,5.19536c-0.21249,0.28083 -0.42499,0.9127 0.21249,0.56166c0.70832,-0.42125 2.05411,-2.17643 2.05411,-2.17643m-11.82883,-0.49146c0,0 -0.42499,-0.14041 -0.77915,-0.35103c-0.35416,-0.21062 -0.56665,-0.56166 -0.56665,-0.63187c0,0 0,0 -0.07083,0c0,0 -0.07083,0.14041 -0.63748,0.9127c-0.56665,0.77228 -1.34579,2.45726 -0.56665,2.73809c0.49582,0.21062 1.27496,-0.70208 1.77078,-1.26374c0.35416,-0.49146 0.84998,-1.26374 0.84998,-1.40415c0,0 0,0 0,0m0.56665,-2.52747c-0.42499,-0.28083 -1.41662,0.42125 -1.41662,1.12332c0,0.77228 0.92081,0.9829 1.06247,0.9829c0,0 0.07083,0 0.14166,-0.07021c0,-0.07021 0.14166,-0.28083 0.28333,-0.63187c0.14166,-0.42125 0.28333,-1.12332 -0.07083,-1.40415m7.79145,4.00183c0.63748,-0.84249 2.33743,-3.79121 2.33743,-3.79121s0,-0.21062 -0.21249,-0.21062c-0.21249,0 -0.63748,0.07021 -1.41662,1.05311c-0.77915,0.9829 -1.41662,1.75519 -1.84161,2.52747c-0.49582,0.9127 -0.70832,1.47436 -0.42499,1.68498c0.07083,0.07021 0.21249,0.07021 0.28333,0c0.21249,-0.07021 0.42499,-0.21062 0.70832,-0.63187c0.21249,-0.14041 0.35416,-0.42125 0.56665,-0.63187m6.87064,-4.6337l-1.41662,0l-0.84998,1.33395l1.41662,0l0.84998,-1.33395zm21.46188,-2.38705c-1.06247,0.70208 -2.54993,1.33395 -3.96655,1.19353c-0.35416,0.35103 -0.77915,0.77228 -1.1333,1.26374c2.4791,0.49146 4.67487,-1.05311 5.80816,-2.31685c0.70832,-0.84249 1.06247,-1.54457 1.06247,-1.54457s-0.70832,0.77228 -1.77078,1.40415m-4.24988,11.2332c-0.21249,0.35103 -0.42499,0.9829 0.21249,0.56166c0.84998,-0.49146 1.98328,-2.24664 1.98328,-2.24664l0.56665,0c0,0 -0.70832,1.12332 -1.62912,2.10623c-0.84998,0.9829 -1.84161,1.82539 -2.54993,1.68498c-0.84998,-0.07021 -0.56665,-1.19353 -0.56665,-1.19353s-1.20413,1.26374 -2.05411,1.19353c-1.1333,-0.14041 -0.77915,-1.47436 -0.77915,-1.47436s-1.27496,1.54457 -2.12494,1.47436c-1.34579,-0.07021 -0.99164,-1.75519 -0.63748,-2.87851c0.21249,-0.63187 0.42499,-1.12332 0.42499,-1.12332s-0.14166,0 -0.42499,0.07021c-0.14166,0 -0.42499,0.07021 -0.42499,0.07021s-0.56665,0.9829 -0.99164,1.61477c-0.42499,0.63187 -2.40826,2.66788 -3.54156,2.24664c-1.06247,-0.35103 -0.70832,-1.9658 -0.07083,-3.22954c0.92081,-1.82539 3.3999,-4.49328 4.81653,-4.14224c1.48745,0.35103 0,3.08913 0,3.08913s0,0 0,0c0,0 0.14166,0 0.28333,0c0.28333,-0.07021 0.56665,-0.14041 0.56665,-0.14041s1.48745,-3.15934 3.18741,-5.19536c1.62912,-2.03602 4.95819,-5.6166 6.30398,-4.7039c0.28333,0.21062 0.14166,0.9127 -0.28333,1.82539c-0.21249,0.07021 -0.35416,0.14041 -0.56665,0.14041c0.28333,-0.49146 0.49582,-0.9829 0.56665,-1.26374c0.21249,-1.05311 -2.2666,1.19353 -4.03738,3.58059c-1.77078,2.38705 -2.83325,4.56349 -2.83325,4.56349s0.35416,-0.21062 0.92081,-0.63187c0.56665,-0.49146 1.41662,-1.19353 2.2666,-2.10623c0.56665,-0.63187 1.27496,-1.33395 1.91244,-2.17643c0.21249,0 0.35416,0 0.56665,-0.07021c-0.70832,0.9829 -1.48745,1.82539 -2.12494,2.52747c-0.70832,0.70208 -1.48745,1.47436 -2.12494,2.03602c-1.06247,0.9127 -1.84161,1.40415 -1.84161,1.40415s-1.55829,3.08913 -0.70832,3.29975c0.49582,0.14041 1.48745,-1.40415 1.48745,-1.40415s1.27496,-1.9658 2.05411,-2.8083c1.06247,-1.19353 1.98328,-1.8956 2.83325,-1.8956c0.49582,0 0.84998,0.56166 0.84998,0.56166l0.28333,-0.35103l1.55829,0c-0.28333,-0.21062 -3.11658,4.6337 -3.32907,4.98473m-8.57058,-1.8956c0,0 -0.35416,-0.14041 -0.70832,-0.42125c-0.35416,-0.28083 -0.49582,-0.63187 -0.49582,-0.63187c0,0 0,0 -0.07083,0c0,0 -0.07083,0.07021 -0.63748,0.84249c-0.56665,0.77228 -1.34579,2.45726 -0.63748,2.73809c0.49582,0.21062 1.27496,-0.63187 1.69995,-1.19353c0.42499,-0.56166 0.84998,-1.19353 0.84998,-1.33395c0,0.07021 0,0 0,0m0.77915,-1.33395c0.14166,-0.35103 0.35416,-1.05311 -0.07083,-1.40415c-0.42499,-0.28083 -1.41662,0.42125 -1.41662,1.12332c0,0.77228 0.70832,1.05311 0.92081,1.12332c0.07083,0 0.14166,0 0.21249,-0.07021c-0.07083,0 0.21249,-0.42125 0.35416,-0.77228m8.71225,-0.9829c0,-0.07021 0.07083,-0.07021 0.07083,-0.07021s0,-0.21062 -0.21249,-0.21062c-0.21249,0 -0.56665,0.07021 -1.41662,0.9829c-0.84998,0.9127 -1.34579,1.75519 -1.77078,2.52747c-0.49582,0.9127 -0.70832,1.54457 -0.42499,1.68498c0.07083,0.07021 0.21249,0.07021 0.28333,0c0.21249,-0.07021 0.42499,-0.21062 0.70832,-0.56166c0.14166,-0.14041 0.35416,-0.42125 0.49582,-0.70208c0.63748,-0.84249 1.98328,-3.22954 2.2666,-3.65079m3.32907,-7.02075c-1.06247,0.70208 -2.54993,1.33395 -3.96655,1.19353c-0.35416,0.35103 -0.77915,0.77228 -1.1333,1.26374c2.4791,0.49146 4.67487,-1.05311 5.80816,-2.31685c0.70832,-0.84249 1.06247,-1.54457 1.06247,-1.54457s-0.70832,0.77228 -1.77078,1.40415m-6.94147,1.82539c-1.20413,-0.63187 -2.05411,-1.33395 -2.90409,-1.75519c-0.84998,-0.42125 -1.41662,-0.63187 -2.05411,-0.49146c-0.14166,0 -0.28333,0.07021 -0.28333,0.07021s0.35416,1.19353 -1.06247,3.22954c-1.41662,2.03602 -2.69159,2.03602 -3.11658,1.47436c-0.35416,-0.56166 0.14166,-1.82539 0.92081,-2.87851c0.84998,-1.12332 2.40826,-2.03602 2.40826,-2.03602s-0.49582,-0.28083 -1.69995,0.35103c-1.1333,0.63187 -3.18741,2.24664 -5.02902,4.84432c-1.84161,2.66788 -2.2666,4.07203 -2.4791,5.26557c-0.28333,1.12332 0,2.38705 1.27496,2.38705c1.27496,0 2.76242,-1.9658 3.18741,-2.59767c0.77915,-1.26374 1.27496,-3.15934 0.21249,-2.94872c-0.49582,0.14041 -0.92081,0.70208 -1.20413,1.26374c-0.28333,0.56166 -0.35416,1.12332 -0.35416,1.12332s-0.42499,0.14041 -1.06247,0.63187c-0.70832,0.35103 -1.06247,0.77228 -1.06247,0.77228s0,-0.9127 0.70832,-2.38705c0.70832,-1.47436 2.05411,-2.17643 2.83325,-2.24664c0.70832,-0.07021 1.55829,0.49146 0.84998,2.66788c-0.77915,2.10623 -2.97492,4.77411 -5.31235,4.77411c-2.19577,0 -3.61239,-2.73809 -0.56665,-7.5122c3.32907,-5.33577 7.22479,-6.95054 8.49975,-7.09096c1.27496,-0.21062 1.69995,0.35103 1.69995,0.35103s1.06247,-0.49146 2.40826,-0.42125c1.55829,0.07021 2.76242,1.19353 4.32071,1.9658c-0.42499,0.42125 -0.77915,0.77228 -1.1333,1.19353m-5.80816,-2.10623c0,0 -0.92081,0.35103 -1.98328,1.54457c-1.06247,1.19353 -1.69995,2.45726 -1.20413,2.8083c0.14166,0.14041 0.56665,0.14041 1.27496,-0.49146c0.56665,-0.49146 1.1333,-1.19353 1.55829,-2.10623c0.49582,-1.19353 0.35416,-1.68498 0.35416,-1.75519" id="svg_3"></path>
     <path stroke="null" class="st1" d="m48.16528,32.65476c-0.14166,-0.14041 -0.35416,-0.21062 -0.49582,-0.21062c-0.21249,0 -0.35416,0.07021 -0.49582,0.21062c-0.14166,0.14041 -0.21249,0.35103 -0.21249,0.49146c0,0.21062 0.07083,0.35103 0.21249,0.56166c0.14166,0.14041 0.35416,0.21062 0.49582,0.21062c0.21249,0 0.35416,-0.07021 0.49582,-0.21062c0.14166,-0.14041 0.21249,-0.35103 0.21249,-0.56166c0,-0.21062 -0.07083,-0.35103 -0.21249,-0.49146m-0.07083,0.9829c-0.14166,0.14041 -0.28333,0.21062 -0.42499,0.21062c-0.21249,0 -0.35416,-0.07021 -0.42499,-0.21062c-0.14166,-0.14041 -0.21249,-0.28083 -0.21249,-0.49146c0,-0.14041 0.07083,-0.35103 0.21249,-0.42125c0.14166,-0.14041 0.28333,-0.21062 0.42499,-0.21062c0.21249,0 0.35416,0.07021 0.42499,0.21062c0.14166,0.14041 0.21249,0.28083 0.21249,0.42125c0,0.21062 -0.07083,0.35103 -0.21249,0.49146" id="svg_4"></path>
     <path stroke="null" class="st1" d="m47.95279,33.49725c0,0 0,0 0,0l0,-0.14041c0,-0.07021 0,-0.07021 -0.07083,-0.14041c0,-0.07021 -0.07083,-0.07021 -0.14166,-0.07021c0.07083,0 0.07083,0 0.14166,-0.07021c0.07083,0 0.07083,-0.07021 0.07083,-0.14041c0,-0.07021 -0.07083,-0.14041 -0.14166,-0.21062c-0.07083,0 -0.14166,0 -0.21249,0l-0.28333,0l0,0.84249l0.14166,0l0,-0.35103l0.14166,0c0.07083,0 0.14166,0 0.14166,0c0.07083,0 0.07083,0.07021 0.07083,0.21062l0,0.07021l0,0c0,0 0,0 0,0l0,0l0.14166,0l0,0c0,0.07021 0,0.07021 0,0m-0.21249,-0.35103c0,0 -0.07083,0 -0.14166,0l-0.14166,0l0,-0.28083l0.14166,0c0.07083,0 0.14166,0 0.14166,0c0.07083,0 0.07083,0.07021 0.07083,0.14041c0.07083,0.07021 0,0.07021 -0.07083,0.14041" id="svg_5"></path>
   </g>
 </g>
</svg>