<svg  xmlns="http://www.w3.org/2000/svg" width="126.562" height="61" viewBox="0 0 126.562 61">
  <defs>
    <style>
      .cls-1 {
      fill: #e32232;
      fill-rule: evenodd;
      }
    </style>
  </defs>
  <path id="А_еще_приятнее_их_дарить_" data-name="А еще приятнее их дарить!" class="cls-1" d="M686.569,38.09l1.28-3.14h5.92l1.28,3.14h3.22l-6-14.1h-2.84l-6,14.1h3.14Zm4.24-10.4,1.86,4.54h-3.72Zm26.28,10.4V35.35h-7.6V32.41h6.6V29.67h-6.6V26.83h7.5V24.09h-10.56v14h10.66Zm23.256,2.92,0.4-5.7h-1.66V24.09h-3.08V35.31h-5V24.09h-3.08V35.31h-4.98V24.09h-3.08v14h17.92v2.92h2.56Zm13.274-2.92V35.35h-7.6V32.41h6.6V29.67h-6.6V26.83h7.5V24.09h-10.56v14h10.66Zm-65.91,22V48.87h5.52V60.09h3.08v-14h-11.68v14h3.08Zm14.988,0v-4.2h2.34a6.263,6.263,0,0,0,4.06-1.29,4.4,4.4,0,0,0,1.6-3.63,4.608,4.608,0,0,0-1.44-3.54,5.529,5.529,0,0,0-3.92-1.34h-5.72v14h3.08Zm0-11.22h2.38a2.793,2.793,0,0,1,1.84.55,1.929,1.929,0,0,1,.66,1.57,2.026,2.026,0,0,1-.65,1.56,2.537,2.537,0,0,1-1.79.6H702.7V48.87Zm19.332-2.78-6.16,9.18V46.09h-3.04v14h2.9l6.12-9.18v9.18h3.04v-14h-2.86Zm10.83,0a5.688,5.688,0,0,0-3.87,1.23,4.729,4.729,0,0,0,1.59,7.77l-3.42,5h3.6l3-4.48h2.42v4.48h3.08v-14h-6.4Zm-1.53,6.26a1.8,1.8,0,0,1-.63-1.44,1.843,1.843,0,0,1,.64-1.52,2.75,2.75,0,0,1,1.78-.52h3.06v4.02h-3.12A2.573,2.573,0,0,1,731.329,52.35Zm17.452,7.74V48.93h4.26V46.09h-11.6v2.84h4.26V60.09h3.08Zm9.512,0V54.47h5.68v5.62h3.08v-14h-3.08v5.54h-5.68V46.09h-3.08v14h3.08Zm22.728,0V57.35h-7.6V54.41h6.6V51.67h-6.6V48.83h7.5V46.09h-10.56v14h10.66Zm13.436,0V57.35h-7.6V54.41h6.6V51.67h-6.6V48.83h7.5V46.09H783.8v14h10.66Zm-100.628,8-6.16,9.18V68.09h-3.04v14h2.9l6.12-9.18v9.18h3.04v-14h-2.86Zm8.512,14,3.16-4.8,3.14,4.8h3.6l-4.88-7.16,4.68-6.84h-3.5l-2.96,4.54-2.94-4.54h-3.6l4.68,6.88-4.88,7.12h3.5Zm19.5,2.92,0.2-2.92h8.76v2.92h2.58l0.4-5.7H732.1V68.09h-10.18v1.64a34.5,34.5,0,0,1-.36,5.56,17.526,17.526,0,0,1-1.18,4.02h-1.32v5.7h2.78Zm7.18-5.7h-5.4a18.314,18.314,0,0,0,1.26-7.02V70.87h4.14v8.44Zm9.3,2.78,1.28-3.14h5.92l1.28,3.14h3.22l-6-14.1h-2.84l-6,14.1h3.14Zm4.24-10.4,1.86,4.54H740.7Zm12.621,10.4v-4.2h2.34a6.261,6.261,0,0,0,4.06-1.29,4.4,4.4,0,0,0,1.6-3.63,4.608,4.608,0,0,0-1.44-3.54,5.527,5.527,0,0,0-3.92-1.34H752.1v14h3.08Zm0-11.22h2.38a2.793,2.793,0,0,1,1.84.55,1.929,1.929,0,0,1,.66,1.57,2.023,2.023,0,0,1-.65,1.56,2.537,2.537,0,0,1-1.79.6h-2.44V70.87Zm19.332-2.78-6.16,9.18V68.09h-3.04v14h2.9l6.12-9.18v9.18h3.04v-14h-2.86Zm12.382,14V70.93h4.26V68.09h-11.6v2.84h4.26V82.09h3.08Zm12.292,0a5.646,5.646,0,0,0,3.89-1.27,4.357,4.357,0,0,0,1.43-3.43,4.241,4.241,0,0,0-1.36-3.31,5.4,5.4,0,0,0-3.76-1.23h-2.98V68.09h-3.08v14h5.86Zm2.26-4.74q0,1.96-2.3,1.96h-2.74V75.49h2.72q2.321,0,2.32,1.86h0Zm7.61-.02L810,68.49v-0.4h-3.56v0.4l0.94,8.84h1.68Zm0.78,4.76v-3.2H806.6v3.2h3.24Z" transform="translate(-683.438 -24)"></path>
</svg>