<svg  xmlns="http://www.w3.org/2000/svg" width="130.406" height="58.5" viewBox="0 0 130.406 58.5">
	<defs>
		<style>
			.cls-1 {
			fill: #e32232;
			fill-rule: evenodd;
			}
		</style>
	</defs>
	<path id="Подарки_приятно_получать_" data-name="Подарки приятно получать…" class="cls-1" d="M87.709,38.09V26.87h5.52V38.09h3.08v-14H84.629v14h3.08Zm26.078-7a6.973,6.973,0,0,0-2.11-5.14,7.775,7.775,0,0,0-10.64.01,7.279,7.279,0,0,0-.02,10.27,7.775,7.775,0,0,0,10.64-.01,6.95,6.95,0,0,0,2.13-5.13h0Zm-11.66,0a4.425,4.425,0,0,1,1.18-3.13,3.94,3.94,0,0,1,3.02-1.27,3.988,3.988,0,0,1,3.04,1.28,4.7,4.7,0,0,1,.02,6.25,3.938,3.938,0,0,1-3.02,1.27,3.986,3.986,0,0,1-3.04-1.28,4.393,4.393,0,0,1-1.2-3.12h0Zm15.47,9.92,0.2-2.92h8.76v2.92h2.58l0.4-5.7h-1.68V24.09h-10.18v1.64a34.5,34.5,0,0,1-.36,5.56,17.476,17.476,0,0,1-1.18,4.02h-1.32v5.7h2.78Zm7.18-5.7h-5.4a18.314,18.314,0,0,0,1.26-7.02V26.87h4.14v8.44Zm9.3,2.78,1.28-3.14h5.92l1.28,3.14h3.22l-6-14.1h-2.84l-6,14.1h3.14Zm4.24-10.4,1.86,4.54h-3.72Zm12.622,10.4v-4.2h2.34a6.263,6.263,0,0,0,4.06-1.29,4.4,4.4,0,0,0,1.6-3.63,4.608,4.608,0,0,0-1.44-3.54,5.529,5.529,0,0,0-3.92-1.34h-5.72v14h3.08Zm0-11.22h2.38a2.8,2.8,0,0,1,1.84.55,1.929,1.929,0,0,1,.66,1.57,2.026,2.026,0,0,1-.65,1.56,2.539,2.539,0,0,1-1.79.6h-2.44V26.87Zm13.212,11.22V33.81l1.62-1.68,4.34,5.96h3.7l-5.96-8.06,5.7-5.94h-3.72l-5.68,6.12V24.09h-3.08v14h3.08Zm20.784-14-6.16,9.18V24.09h-3.04v14h2.9l6.12-9.18v9.18h3.04v-14h-2.86Zm-97.224,36V48.87h5.52V60.09h3.08v-14H84.629v14h3.08Zm14.988,0v-4.2h2.34a6.263,6.263,0,0,0,4.06-1.29,4.4,4.4,0,0,0,1.6-3.63,4.608,4.608,0,0,0-1.44-3.54,5.529,5.529,0,0,0-3.92-1.34h-5.72v14h3.08Zm0-11.22h2.38a2.793,2.793,0,0,1,1.84.55,1.929,1.929,0,0,1,.66,1.57,2.026,2.026,0,0,1-.65,1.56,2.537,2.537,0,0,1-1.79.6H102.7V48.87Zm19.332-2.78-6.16,9.18V46.09h-3.04v14h2.9l6.12-9.18v9.18h3.04v-14h-2.86Zm10.83,0a5.688,5.688,0,0,0-3.87,1.23,4.729,4.729,0,0,0,1.59,7.77l-3.42,5h3.6l3-4.48h2.42v4.48h3.08v-14h-6.4Zm-1.53,6.26a1.8,1.8,0,0,1-.63-1.44,1.843,1.843,0,0,1,.64-1.52,2.75,2.75,0,0,1,1.78-.52h3.06v4.02h-3.12A2.573,2.573,0,0,1,131.329,52.35Zm17.452,7.74V48.93h4.26V46.09h-11.6v2.84h4.26V60.09h3.08Zm9.512,0V54.47h5.68v5.62h3.08v-14h-3.08v5.54h-5.68V46.09h-3.08v14h3.08Zm26.238-7a6.977,6.977,0,0,0-2.11-5.14,7.775,7.775,0,0,0-10.64.01,7.279,7.279,0,0,0-.02,10.27,7.775,7.775,0,0,0,10.64-.01,6.95,6.95,0,0,0,2.13-5.13h0Zm-11.66,0a4.425,4.425,0,0,1,1.18-3.13,3.938,3.938,0,0,1,3.02-1.27,3.989,3.989,0,0,1,3.04,1.28,4.7,4.7,0,0,1,.02,6.25,3.94,3.94,0,0,1-3.02,1.27,3.986,3.986,0,0,1-3.04-1.28,4.393,4.393,0,0,1-1.2-3.12h0Zm-85.162,29V70.87h5.52V82.09h3.08v-14H84.629v14h3.08Zm26.078-7a6.973,6.973,0,0,0-2.11-5.14,7.775,7.775,0,0,0-10.64.01,7.279,7.279,0,0,0-.02,10.27,7.775,7.775,0,0,0,10.64-.01,6.95,6.95,0,0,0,2.13-5.13h0Zm-11.66,0a4.425,4.425,0,0,1,1.18-3.13,3.94,3.94,0,0,1,3.02-1.27,3.988,3.988,0,0,1,3.04,1.28,4.7,4.7,0,0,1,.02,6.25,3.938,3.938,0,0,1-3.02,1.27,3.986,3.986,0,0,1-3.04-1.28,4.393,4.393,0,0,1-1.2-3.12h0Zm15.838-4.1q0,2.76-.16,4.51a9.356,9.356,0,0,1-.53,2.63,2.606,2.606,0,0,1-.8,1.17,1.948,1.948,0,0,1-1.11.29,3.442,3.442,0,0,1-.48-0.04l-0.2,2.54a6.387,6.387,0,0,0,1.62.18,3.738,3.738,0,0,0,2.62-.86,5.915,5.915,0,0,0,1.43-3.12,31.713,31.713,0,0,0,.49-6.36V70.87h4.04V82.09h3.08v-14h-10v2.9Zm15.464-2.9h-3.44l5.6,10.48a2.077,2.077,0,0,1-1.76,1.12,3.143,3.143,0,0,1-1.66-.46l-1.2,2.26a6.012,6.012,0,0,0,3.02.82,4.257,4.257,0,0,0,2.59-.8,7.091,7.091,0,0,0,1.99-2.6l5.38-10.82h-3.34l-3.38,7.4Zm23.876,14v-14h-3.08v6.04a4.858,4.858,0,0,1-3.06.9q-2.261,0-2.26-2.72V68.09h-3.08v5.12a4.6,4.6,0,0,0,1.26,3.52,4.83,4.83,0,0,0,3.44,1.18,8.654,8.654,0,0,0,3.7-1.04v5.22h3.08Zm5.222,0,1.28-3.14h5.92l1.28,3.14h3.22l-6-14.1h-2.84l-6,14.1h3.14Zm4.24-10.4,1.86,4.54h-3.72Zm14.281,10.4V70.93h4.26V68.09h-11.6v2.84h4.26V82.09h3.08Zm12.292,0a5.646,5.646,0,0,0,3.89-1.27,4.357,4.357,0,0,0,1.43-3.43,4.241,4.241,0,0,0-1.36-3.31,5.4,5.4,0,0,0-3.76-1.23h-2.98V68.09h-3.08v14h5.86Zm2.26-4.74q0,1.96-2.3,1.96h-2.74V75.49h2.72q2.321,0,2.32,1.86h0Zm19.432,4.74V78.97h-3.16v3.12h3.16Zm-5.58,0V78.97h-3.16v3.12h3.16Zm-5.58,0V78.97h-3.16v3.12h3.16Z" transform="translate(-84.625 -23.844)"></path>
</svg>