<svg  xmlns="http://www.w3.org/2000/svg" width="133.75" height="18.125" viewBox="0 0 133.75 18.125">
	<defs>
		<style>
			.cls-1w {
			fill: #e32232;
			fill-rule: evenodd;
			}
		</style>
	</defs>
	<path id="_БудьСантой_" data-name="#БудьСантой " class="cls-1w" d="M1926.64,38.09l0.44-2.55h2.47l-0.45,2.55h2.25l0.44-2.55h1.87V33.364h-1.5l0.43-2.516h1.66V28.672h-1.29l0.43-2.482h-2.25l-0.42,2.482h-2.47l0.43-2.482h-2.25l-0.42,2.482h-1.87v2.176h1.5l-0.43,2.516h-1.67V35.54h1.3l-0.45,2.55h2.25Zm1.24-7.242h2.46l-0.42,2.516h-2.47Zm17.43-2.295V26.19h-9.13v11.9h5.51a4.944,4.944,0,0,0,3.27-.986,3.444,3.444,0,0,0,1.17-2.788,3.463,3.463,0,0,0-1.1-2.695,4.424,4.424,0,0,0-3.08-.995h-3.15V28.553h6.51Zm-1.8,5.661c0,1.009-.61,1.513-1.82,1.513h-2.89V32.8h2.87c1.23,0,1.84.471,1.84,1.411h0Zm6.35-8.024h-2.92l4.76,8.908a1.773,1.773,0,0,1-1.5.952,2.667,2.667,0,0,1-1.41-.391l-1.02,1.921a5.12,5.12,0,0,0,2.57.7,3.618,3.618,0,0,0,2.2-.68,6,6,0,0,0,1.69-2.21l4.58-9.2h-2.84l-2.88,6.29Zm11.02,14.382,0.17-2.482h7.44v2.482h2.2l0.34-4.845h-1.43V26.19h-8.65v1.394a29.724,29.724,0,0,1-.31,4.726,14.9,14.9,0,0,1-1,3.417h-1.13v4.845h2.37Zm6.1-4.845h-4.59a15.643,15.643,0,0,0,1.07-5.967V28.553h3.52v7.174Zm10.73,2.363a4.788,4.788,0,0,0,3.3-1.079,3.707,3.707,0,0,0,1.22-2.916,3.611,3.611,0,0,0-1.16-2.813,4.574,4.574,0,0,0-3.19-1.046h-2.54V26.19h-2.61v11.9h4.98Zm1.92-4.029c0,1.111-.65,1.666-1.96,1.666h-2.33V32.48h2.32c1.31,0,1.97.527,1.97,1.581h0Zm12.87,3.74a6.243,6.243,0,0,0,2.1-1.53l-1.66-1.785a6.751,6.751,0,0,1-1.48,1.054,3.756,3.756,0,0,1-1.65.34,3.2,3.2,0,0,1-2.48-1.088,4.122,4.122,0,0,1,0-5.313,3.215,3.215,0,0,1,2.48-1.079,3.814,3.814,0,0,1,1.62.315,5.929,5.929,0,0,1,1.44,1.011l1.56-1.8a7.387,7.387,0,0,0-2-1.436,6.073,6.073,0,0,0-2.61-.5,6.04,6.04,0,0,0-6.2,6.154,6.013,6.013,0,0,0,1.74,4.377,5.861,5.861,0,0,0,4.36,1.776A6.94,6.94,0,0,0,1992.5,37.8Zm5.68,0.289,1.09-2.669h5.03l1.09,2.669h2.74l-5.1-11.985h-2.42l-5.1,11.985h2.67Zm3.61-8.84,1.58,3.859h-3.16Zm10.57,8.84V33.313h4.83V38.09h2.62V26.19h-2.62V30.9h-4.83V26.19h-2.61v11.9h2.61Zm15.39,0V28.6h3.62V26.19h-9.86V28.6h3.63V38.09h2.61Zm17.26-5.95a5.947,5.947,0,0,0-1.79-4.369,6.616,6.616,0,0,0-9.05.008,6.18,6.18,0,0,0-.01,8.73,6.6,6.6,0,0,0,9.04-.008,5.9,5.9,0,0,0,1.81-4.361h0Zm-9.91,0a3.754,3.754,0,0,1,1-2.661,3.6,3.6,0,0,1,5.15.009,4,4,0,0,1,.02,5.313,3.345,3.345,0,0,1-2.57,1.08,3.384,3.384,0,0,1-2.58-1.088,3.734,3.734,0,0,1-1.02-2.652h0Zm19.75-5.95-5.24,7.8v-7.8h-2.58v11.9h2.47l5.2-7.8v7.8h2.58V26.19h-2.43Zm0.2-3.485-1.51-.272a1.358,1.358,0,0,1-2.68,0l-1.52.272a3.024,3.024,0,0,0,.93,1.9,3.079,3.079,0,0,0,3.86,0,3.015,3.015,0,0,0,.92-1.9h0Z" transform="translate(-1923.53 -22.438)"></path>
</svg>