<svg xmlns="http://www.w3.org/2000/svg" width="208.438" height="19.156" viewBox="0 0 208.438 19.156" >
  <defs>
    <style>
      .cls-1ds {
      fill: #9f9f9f;
      fill-rule: evenodd;
      }
    </style>
  </defs>
  <path id="Унитарное_предприятие_Кока-Кола_Бевриджиз_Белоруссия_УНП_1003" data-name="Унитарное предприятие «Кока-Кола Бевриджиз Белоруссия» УНП 1003" class="cls-1ds" d="M327.658,371.088H326.9l2.959,5.752-0.338.7-0.134.241a1.208,1.208,0,0,1-1.069.682,1.729,1.729,0,0,1-.451-0.037l-0.059.537a1.681,1.681,0,0,0,.5.059,1.816,1.816,0,0,0,1.676-1.015l0.194-.371,3.024-6.547h-0.779L330.2,376.1Zm10.833,2.009h-0.645V375.7h-3.131V373.1H334.07v5.811h0.645v-2.664h3.131v2.664h0.645V373.1Zm2.508,4.78V373.1H340.36v5.811H341l3.137-4.775v4.775h0.645V373.1h-0.645Zm9.85-4.78h-4.8v0.548h2.036v5.263h0.644v-5.263h2.117V373.1Zm5.54,5.811v-0.064a3.417,3.417,0,0,1-.177-1.262v-2.75a1.746,1.746,0,0,0-.577-1.357,2.265,2.265,0,0,0-1.534-.486,2.479,2.479,0,0,0-1.584.508,1.493,1.493,0,0,0-.645,1.2l0.645,0.006a1.024,1.024,0,0,1,.44-0.828,1.754,1.754,0,0,1,1.112-.343,1.587,1.587,0,0,1,1.12.357,1.273,1.273,0,0,1,.384.98v0.661h-1.166a3.4,3.4,0,0,0-1.968.494,1.554,1.554,0,0,0-.706,1.343,1.519,1.519,0,0,0,.518,1.181,1.946,1.946,0,0,0,1.356.468,2.645,2.645,0,0,0,1.109-.239,2.242,2.242,0,0,0,.862-0.68,3.014,3.014,0,0,0,.124.811h0.687Zm-3.649-.784a1.038,1.038,0,0,1-.363-0.811,1.055,1.055,0,0,1,.543-0.937,2.871,2.871,0,0,1,1.5-.352h1.149V377.3a1.83,1.83,0,0,1-.739.833,2.161,2.161,0,0,1-1.152.311A1.363,1.363,0,0,1,352.74,378.124Zm9.982-2.154a3.574,3.574,0,0,0-.594-2.191,1.932,1.932,0,0,0-1.635-.79,2.063,2.063,0,0,0-1.821.929l-0.032-.821h-0.6v8.046h0.64v-2.965a2.152,2.152,0,0,0,1.826.838,1.915,1.915,0,0,0,1.611-.8,3.5,3.5,0,0,0,.6-2.156V375.97Zm-1.1,1.856a1.458,1.458,0,0,1-1.265.647,1.911,1.911,0,0,1-1.015-.263,1.7,1.7,0,0,1-.66-0.763V374.66a1.695,1.695,0,0,1,1.665-1.112,1.474,1.474,0,0,1,1.273.644,3,3,0,0,1,.456,1.757A3.252,3.252,0,0,1,361.623,377.826Zm7.134-4.729h-0.645V375.7h-3.131V373.1h-0.645v5.811h0.645v-2.664h3.131v2.664h0.645V373.1Zm1.533,2.948a3.127,3.127,0,0,0,.723,2.157,2.393,2.393,0,0,0,1.877.814,2.507,2.507,0,0,0,1.348-.366,2.427,2.427,0,0,0,.916-1.039,3.443,3.443,0,0,0,.325-1.517v-0.135a3.133,3.133,0,0,0-.72-2.156,2.389,2.389,0,0,0-1.88-.814,2.446,2.446,0,0,0-2.264,1.418,3.432,3.432,0,0,0-.325,1.51v0.128Zm0.645-.069a2.734,2.734,0,0,1,.542-1.765,1.719,1.719,0,0,1,1.4-.674,1.767,1.767,0,0,1,1.021.3,1.99,1.99,0,0,1,.693.856,2.972,2.972,0,0,1,.247,1.22v0.123a2.719,2.719,0,0,1-.54,1.764,1.826,1.826,0,0,1-2.825,0,2.634,2.634,0,0,1-.54-1.71v-0.118Zm10.419,2.014-0.4-.306a2.024,2.024,0,0,1-.717.6,2.081,2.081,0,0,1-.91.188,1.8,1.8,0,0,1-1.426-.658,2.43,2.43,0,0,1-.567-1.646v-0.124h4.147v-0.359a2.926,2.926,0,0,0-.621-1.974,2.1,2.1,0,0,0-1.678-.723,2.234,2.234,0,0,0-1.257.384,2.585,2.585,0,0,0-.905,1.056,3.41,3.41,0,0,0-.325,1.509v0.231a3.174,3.174,0,0,0,.333,1.464,2.486,2.486,0,0,0,.932,1.017,2.518,2.518,0,0,0,1.34.366,2.345,2.345,0,0,0,2.057-1.026h0Zm-0.994-3.927a2.134,2.134,0,0,1,.479,1.365v0.07h-3.486a2.453,2.453,0,0,1,.6-1.429,1.6,1.6,0,0,1,1.222-.532A1.481,1.481,0,0,1,380.36,374.063Zm9.507-.966h-4.42v5.811h0.644v-5.253h3.132v5.253h0.644V373.1Zm6.527,2.873a3.581,3.581,0,0,0-.593-2.191,1.933,1.933,0,0,0-1.636-.79,2.063,2.063,0,0,0-1.821.929l-0.032-.821h-0.6v8.046h0.639v-2.965a2.153,2.153,0,0,0,1.826.838,1.917,1.917,0,0,0,1.612-.8,3.5,3.5,0,0,0,.6-2.156V375.97Zm-1.1,1.856a1.46,1.46,0,0,1-1.265.647,1.908,1.908,0,0,1-1.015-.263,1.7,1.7,0,0,1-.661-0.763V374.66a1.7,1.7,0,0,1,1.665-1.112,1.473,1.473,0,0,1,1.273.644,3,3,0,0,1,.457,1.757A3.259,3.259,0,0,1,395.3,377.826Zm7.021,0.164-0.4-.306a2.024,2.024,0,0,1-.717.6,2.086,2.086,0,0,1-.911.188,1.8,1.8,0,0,1-1.426-.658,2.43,2.43,0,0,1-.566-1.646v-0.124h4.146v-0.359a2.931,2.931,0,0,0-.62-1.974,2.1,2.1,0,0,0-1.679-.723,2.234,2.234,0,0,0-1.257.384,2.592,2.592,0,0,0-.905,1.056,3.424,3.424,0,0,0-.325,1.509v0.231a3.174,3.174,0,0,0,.333,1.464,2.486,2.486,0,0,0,.932,1.017,2.521,2.521,0,0,0,1.34.366,2.347,2.347,0,0,0,2.058-1.026h0Zm-0.994-3.927a2.134,2.134,0,0,1,.478,1.365v0.07h-3.486a2.46,2.46,0,0,1,.6-1.429,1.607,1.607,0,0,1,1.222-.532A1.485,1.485,0,0,1,401.323,374.063Zm2.031,4.3,0,2.25h0.617v-1.708h4.367v1.708h0.639v-2.25h-0.6V373.1h-3.433l-0.1,2.213a4.991,4.991,0,0,1-.778,2.685l-0.285.371h-0.419Zm2.127-3.158,0.07-1.51h2.175v4.668h-3.212a5.359,5.359,0,0,0,.967-3.158h0Zm9.345-2.111h-4.421v5.811h0.645v-5.253h3.131v5.253h0.645V373.1Zm6.527,2.873a3.574,3.574,0,0,0-.594-2.191,1.931,1.931,0,0,0-1.635-.79,2.063,2.063,0,0,0-1.821.929l-0.032-.821h-0.6v8.046h0.64v-2.965a2.152,2.152,0,0,0,1.826.838,1.915,1.915,0,0,0,1.611-.8,3.5,3.5,0,0,0,.6-2.156V375.97Zm-1.1,1.856a1.458,1.458,0,0,1-1.265.647,1.911,1.911,0,0,1-1.015-.263,1.707,1.707,0,0,1-.66-0.763V374.66a1.7,1.7,0,0,1,1.665-1.112,1.474,1.474,0,0,1,1.273.644,3,3,0,0,1,.456,1.757A3.252,3.252,0,0,1,420.254,377.826Zm3.353,0.051V373.1h-0.639v5.811h0.639l3.136-4.775v4.775h0.645V373.1h-0.645Zm7.546-4.78a2.321,2.321,0,0,0-1.534.472,1.563,1.563,0,0,0-.566,1.263,1.719,1.719,0,0,0,.33,1.052,1.616,1.616,0,0,0,.927.6l-1.461,2.422h0.709l1.418-2.342h1.8v2.342h0.645V373.1h-2.272Zm-1.072.87a1.592,1.592,0,0,1,1.056-.322h1.643v2.374h-1.853a1.254,1.254,0,0,1-.905-0.339,1.137,1.137,0,0,1-.325-0.838A1.083,1.083,0,0,1,430.081,373.967Zm9.424-.87h-4.8v0.548h2.036v5.263h0.644v-5.263h2.117V373.1Zm1.906,4.78V373.1h-0.639v5.811h0.639l3.137-4.775v4.775h0.644V373.1h-0.644Zm9.979,0.113-0.4-.306a2.007,2.007,0,0,1-.717.6,2.081,2.081,0,0,1-.91.188,1.8,1.8,0,0,1-1.426-.658,2.43,2.43,0,0,1-.567-1.646v-0.124h4.147v-0.359a2.926,2.926,0,0,0-.621-1.974,2.1,2.1,0,0,0-1.678-.723,2.234,2.234,0,0,0-1.257.384,2.585,2.585,0,0,0-.905,1.056,3.41,3.41,0,0,0-.325,1.509v0.231a3.174,3.174,0,0,0,.333,1.464,2.486,2.486,0,0,0,.932,1.017,2.518,2.518,0,0,0,1.34.366,2.344,2.344,0,0,0,2.057-1.026h0Zm-0.993-3.927a2.139,2.139,0,0,1,.478,1.365v0.07h-3.486a2.453,2.453,0,0,1,.6-1.429,1.606,1.606,0,0,1,1.222-.532A1.485,1.485,0,0,1,450.4,374.063Zm7.014-.123h-0.564l-1.584,2.036v0.1l1.584,2.035h0.564l-1.482-2.084Zm1.66,0h-0.564l-1.585,2.036v0.1l1.585,2.035h0.564l-1.483-2.084Zm6.483,4.968h0.822l-3.449-3.977,3.212-3.843h-0.832l-3.024,3.588h-1.042v-3.588H460.58v7.82h0.661v-3.674h1.074Zm1.331-2.863a3.127,3.127,0,0,0,.722,2.157,2.394,2.394,0,0,0,1.877.814,2.507,2.507,0,0,0,1.348-.366,2.427,2.427,0,0,0,.916-1.039,3.443,3.443,0,0,0,.325-1.517v-0.135a3.133,3.133,0,0,0-.72-2.156,2.389,2.389,0,0,0-1.88-.814,2.443,2.443,0,0,0-2.263,1.418,3.418,3.418,0,0,0-.325,1.51v0.128Zm0.644-.069a2.729,2.729,0,0,1,.543-1.765,1.717,1.717,0,0,1,1.4-.674,1.765,1.765,0,0,1,1.021.3,1.99,1.99,0,0,1,.693.856,2.972,2.972,0,0,1,.247,1.22v0.123a2.719,2.719,0,0,1-.54,1.764,1.826,1.826,0,0,1-2.825,0,2.634,2.634,0,0,1-.54-1.71v-0.118Zm9.966,2.932h0.849l-2.648-2.991,2.385-2.82H477.27l-2.133,2.578h-0.88V373.1h-0.65v5.811h0.65v-2.664h0.891Zm6.229,0v-0.064a3.417,3.417,0,0,1-.177-1.262v-2.75a1.746,1.746,0,0,0-.578-1.357,2.263,2.263,0,0,0-1.533-.486,2.48,2.48,0,0,0-1.585.508,1.494,1.494,0,0,0-.644,1.2l0.644,0.006a1.023,1.023,0,0,1,.441-0.828,1.752,1.752,0,0,1,1.112-.343,1.586,1.586,0,0,1,1.119.357,1.274,1.274,0,0,1,.385.98v0.661h-1.166a3.4,3.4,0,0,0-1.969.494,1.557,1.557,0,0,0-.706,1.343,1.522,1.522,0,0,0,.518,1.181,1.948,1.948,0,0,0,1.357.468,2.645,2.645,0,0,0,1.109-.239,2.249,2.249,0,0,0,.862-0.68,3.062,3.062,0,0,0,.123.811h0.688Zm-3.65-.784a1.041,1.041,0,0,1-.362-0.811,1.054,1.054,0,0,1,.542-0.937,2.873,2.873,0,0,1,1.5-.352h1.15V377.3a1.836,1.836,0,0,1-.739.833,2.161,2.161,0,0,1-1.152.311A1.366,1.366,0,0,1,480.074,378.124Zm7.514-2.938h-2.573v0.543h2.573v-0.543Zm6.553,3.722h0.822l-3.448-3.977,3.212-3.843h-0.833l-3.024,3.588h-1.042v-3.588h-0.66v7.82h0.66v-3.674H490.9Zm1.331-2.863a3.127,3.127,0,0,0,.723,2.157,2.393,2.393,0,0,0,1.877.814,2.507,2.507,0,0,0,1.348-.366,2.427,2.427,0,0,0,.916-1.039,3.457,3.457,0,0,0,.325-1.517v-0.135a3.133,3.133,0,0,0-.72-2.156,2.389,2.389,0,0,0-1.88-.814,2.446,2.446,0,0,0-2.264,1.418,3.418,3.418,0,0,0-.325,1.51v0.128Zm0.645-.069a2.734,2.734,0,0,1,.542-1.765,1.719,1.719,0,0,1,1.4-.674,1.769,1.769,0,0,1,1.021.3,1.981,1.981,0,0,1,.692.856,2.956,2.956,0,0,1,.248,1.22v0.123a2.719,2.719,0,0,1-.54,1.764,1.826,1.826,0,0,1-2.825,0,2.634,2.634,0,0,1-.54-1.71v-0.118Zm6.733-2.879-0.118,2.814a5.838,5.838,0,0,1-.317,1.88,0.841,0.841,0,0,1-.8.537l-0.2.011v0.569h0.247a1.376,1.376,0,0,0,.929-0.3,1.869,1.869,0,0,0,.527-0.937,9.113,9.113,0,0,0,.241-1.843l0.1-2.173h2.38v5.253h0.644V373.1H502.85Zm9.847,5.811v-0.064a3.417,3.417,0,0,1-.177-1.262v-2.75a1.746,1.746,0,0,0-.578-1.357,2.263,2.263,0,0,0-1.533-.486,2.48,2.48,0,0,0-1.585.508,1.494,1.494,0,0,0-.644,1.2l0.644,0.006a1.023,1.023,0,0,1,.441-0.828,1.751,1.751,0,0,1,1.111-.343,1.587,1.587,0,0,1,1.12.357,1.273,1.273,0,0,1,.384.98v0.661h-1.165a3.4,3.4,0,0,0-1.969.494,1.554,1.554,0,0,0-.706,1.343,1.522,1.522,0,0,0,.518,1.181,1.948,1.948,0,0,0,1.357.468,2.645,2.645,0,0,0,1.109-.239,2.249,2.249,0,0,0,.862-0.68,3.062,3.062,0,0,0,.123.811H512.7Zm-3.65-.784a1.037,1.037,0,0,1-.362-0.811,1.054,1.054,0,0,1,.542-0.937,2.873,2.873,0,0,1,1.5-.352h1.149V377.3a1.834,1.834,0,0,1-.738.833,2.166,2.166,0,0,1-1.152.311A1.366,1.366,0,0,1,509.047,378.124Zm-188.306,1.964h-4.715v7.82h2.583a2.858,2.858,0,0,0,1.918-.593,2.032,2.032,0,0,0,.692-1.63,2.175,2.175,0,0,0-.308-1.174,1.993,1.993,0,0,0-.895-0.763,3.329,3.329,0,0,0-1.385-.266h-1.939v-2.836h4.049v-0.558Zm-2.067,3.953a2.055,2.055,0,0,1,1.385.449,1.5,1.5,0,0,1,.494,1.181,1.553,1.553,0,0,1-.51,1.229,2.071,2.071,0,0,1-1.418.45h-1.933v-3.309h1.982Zm8.552,2.949-0.4-.306a2.024,2.024,0,0,1-.717.6,2.086,2.086,0,0,1-.911.188,1.8,1.8,0,0,1-1.426-.658,2.435,2.435,0,0,1-.566-1.646v-0.124h4.146v-0.359a2.931,2.931,0,0,0-.62-1.974,2.1,2.1,0,0,0-1.679-.723,2.229,2.229,0,0,0-1.256.384,2.577,2.577,0,0,0-.9,1.056,3.41,3.41,0,0,0-.325,1.509v0.231a3.174,3.174,0,0,0,.333,1.464,2.479,2.479,0,0,0,.932,1.017,2.516,2.516,0,0,0,1.34.366,2.346,2.346,0,0,0,2.057-1.026h0Zm-0.994-3.927a2.134,2.134,0,0,1,.478,1.365v0.07h-3.486a2.454,2.454,0,0,1,.605-1.429,1.6,1.6,0,0,1,1.221-.532A1.485,1.485,0,0,1,326.232,383.063Zm5.1,4.845a2.645,2.645,0,0,0,1.6-.421,1.4,1.4,0,0,0,.567-1.19,1.276,1.276,0,0,0-.347-0.886,1.591,1.591,0,0,0-.915-0.489,1.5,1.5,0,0,0,.768-0.5,1.238,1.238,0,0,0,.263-0.776,1.306,1.306,0,0,0-.591-1.158,3.053,3.053,0,0,0-1.7-.394h-2.132v5.811h2.481Zm0.021-2.675a1.881,1.881,0,0,1,1.118.285,0.9,0.9,0,0,1,.392.768,0.929,0.929,0,0,1-.392.806,1.911,1.911,0,0,1-1.118.279h-1.863v-2.138h1.863Zm-1.863-2.588h1.493a2.484,2.484,0,0,1,1.233.244,0.835,0.835,0,0,1,.416.776q0,1.01-1.515,1.031h-1.627v-2.051Zm10.256,2.325a3.574,3.574,0,0,0-.593-2.191,1.933,1.933,0,0,0-1.636-.79,2.063,2.063,0,0,0-1.82.929l-0.033-.821h-0.6v8.046H335.7v-2.965a2.155,2.155,0,0,0,1.827.838,1.915,1.915,0,0,0,1.611-.8,3.5,3.5,0,0,0,.6-2.156V384.97Zm-1.1,1.856a1.46,1.46,0,0,1-1.265.647,1.908,1.908,0,0,1-1.015-.263,1.709,1.709,0,0,1-.661-0.763V383.66a1.7,1.7,0,0,1,1.665-1.112,1.472,1.472,0,0,1,1.273.644,2.988,2.988,0,0,1,.457,1.757A3.252,3.252,0,0,1,338.644,386.826ZM342,386.877V382.1h-0.639v5.811H342l3.137-4.775v4.775h0.645V382.1h-0.645Zm5.1,0.489-0.006,2.25H347.7v-1.708h4.367v1.708h0.639v-2.25h-0.6V382.1h-3.432l-0.1,2.213A4.982,4.982,0,0,1,347.8,387l-0.284.371h-0.419Zm2.127-3.158,0.069-1.51h2.176v4.668h-3.212a5.359,5.359,0,0,0,.967-3.158h0Zm11.778,3.7h0.822l-2.411-2.981,2.148-2.83h-0.79l-1.906,2.551h-0.784V382.1h-0.645v2.551h-0.779l-1.907-2.551h-0.778l2.137,2.83-2.406,2.981h0.817l2.148-2.685h0.768v2.685h0.645v-2.685h0.773Zm2.717-1.031V382.1h-0.639v5.811h0.639l3.137-4.775v4.775H367.5V382.1h-0.644Zm7.679-2.213H370.4v0.559h0.886a2.111,2.111,0,0,1,1.165.257,0.945,0.945,0,0,1,.382.844,0.99,0.99,0,0,1-.417.84,1.9,1.9,0,0,1-1.152.309,1.833,1.833,0,0,1-1.141-.352,1.062,1.062,0,0,1-.465-0.878h-0.644a1.532,1.532,0,0,0,.639,1.278,2.574,2.574,0,0,0,1.611.489,2.619,2.619,0,0,0,1.612-.456,1.473,1.473,0,0,0,.607-1.241,1.338,1.338,0,0,0-1.118-1.386,1.654,1.654,0,0,0,.752-0.526,1.219,1.219,0,0,0,.258-0.757,1.45,1.45,0,0,0-.558-1.22,2.507,2.507,0,0,0-1.558-.429,2.447,2.447,0,0,0-1.528.472,1.447,1.447,0,0,0-.621,1.2h0.64a0.96,0.96,0,0,1,.443-0.808,1.772,1.772,0,0,1,1.066-.32,1.808,1.808,0,0,1,1.08.285,0.943,0.943,0,0,1,.392.811q0,1-1.338,1.031h0Zm11.006-4.576h-4.716v7.82h2.583a2.858,2.858,0,0,0,1.918-.593,2.033,2.033,0,0,0,.693-1.63,2.176,2.176,0,0,0-.309-1.174,1.993,1.993,0,0,0-.895-0.763,3.329,3.329,0,0,0-1.385-.266h-1.939v-2.836h4.05v-0.558Zm-2.068,3.953a2.055,2.055,0,0,1,1.385.449,1.5,1.5,0,0,1,.5,1.181,1.553,1.553,0,0,1-.511,1.229,2.071,2.071,0,0,1-1.418.45h-1.933v-3.309h1.982Zm8.552,2.949-0.4-.306a2.024,2.024,0,0,1-.717.6,2.085,2.085,0,0,1-.91.188,1.8,1.8,0,0,1-1.426-.658,2.43,2.43,0,0,1-.567-1.646v-0.124h4.146v-0.359a2.926,2.926,0,0,0-.62-1.974,2.1,2.1,0,0,0-1.678-.723,2.23,2.23,0,0,0-1.257.384,2.577,2.577,0,0,0-.905,1.056,3.41,3.41,0,0,0-.325,1.509v0.231a3.174,3.174,0,0,0,.333,1.464,2.479,2.479,0,0,0,.932,1.017,2.518,2.518,0,0,0,1.34.366,2.346,2.346,0,0,0,2.057-1.026h0Zm-0.994-3.927a2.134,2.134,0,0,1,.478,1.365v0.07h-3.486a2.454,2.454,0,0,1,.605-1.429,1.6,1.6,0,0,1,1.222-.532A1.484,1.484,0,0,1,387.889,383.063Zm3.478-.966-0.119,2.814a5.817,5.817,0,0,1-.316,1.88,0.841,0.841,0,0,1-.8.537l-0.2.011v0.569h0.247a1.376,1.376,0,0,0,.929-0.3,1.869,1.869,0,0,0,.527-0.937,9.113,9.113,0,0,0,.241-1.843l0.1-2.173h2.38v5.253h0.644V382.1h-3.641Zm5.181,2.948a3.127,3.127,0,0,0,.723,2.157,2.393,2.393,0,0,0,1.877.814,2.507,2.507,0,0,0,1.348-.366,2.427,2.427,0,0,0,.916-1.039,3.457,3.457,0,0,0,.325-1.517v-0.135a3.133,3.133,0,0,0-.72-2.156,2.389,2.389,0,0,0-1.88-.814,2.446,2.446,0,0,0-2.264,1.418,3.432,3.432,0,0,0-.325,1.51v0.128Zm0.645-.069a2.734,2.734,0,0,1,.542-1.765,1.719,1.719,0,0,1,1.4-.674,1.769,1.769,0,0,1,1.021.3,1.99,1.99,0,0,1,.693.856,2.972,2.972,0,0,1,.247,1.22v0.123a2.719,2.719,0,0,1-.54,1.764,1.826,1.826,0,0,1-2.825,0,2.634,2.634,0,0,1-.54-1.71v-0.118Zm10.735-.006a3.574,3.574,0,0,0-.594-2.191,1.932,1.932,0,0,0-1.635-.79,2.063,2.063,0,0,0-1.821.929l-0.032-.821h-0.6v8.046h0.64v-2.965a2.152,2.152,0,0,0,1.826.838,1.915,1.915,0,0,0,1.611-.8,3.5,3.5,0,0,0,.6-2.156V384.97Zm-1.1,1.856a1.458,1.458,0,0,1-1.265.647,1.911,1.911,0,0,1-1.015-.263,1.707,1.707,0,0,1-.66-0.763V383.66a1.7,1.7,0,0,1,1.665-1.112,1.474,1.474,0,0,1,1.273.644,3,3,0,0,1,.456,1.757A3.252,3.252,0,0,1,406.829,386.826Zm2.578-4.729h-0.7l2.191,5.763-0.285.784a1.772,1.772,0,0,1-.5.8,1.192,1.192,0,0,1-.766.234l-0.333-.033,0.006,0.532a1.8,1.8,0,0,0,.494.075,1.56,1.56,0,0,0,1.477-1.058l0.129-.3,2.481-6.8h-0.693l-1.7,4.887Zm6.044,4.753a2.777,2.777,0,0,1-.481-1.735v-0.188a2.837,2.837,0,0,1,.481-1.761,1.751,1.751,0,0,1,2.481-.21,1.581,1.581,0,0,1,.492,1.1h0.617a2.07,2.07,0,0,0-.663-1.5,2.24,2.24,0,0,0-1.576-.57,2.38,2.38,0,0,0-1.314.36,2.321,2.321,0,0,0-.862,1.021,3.639,3.639,0,0,0-.3,1.52v0.193a3.214,3.214,0,0,0,.668,2.138,2.245,2.245,0,0,0,1.813.8,2.465,2.465,0,0,0,1.088-.247,2.087,2.087,0,0,0,.813-0.685,1.822,1.822,0,0,0,.333-0.97h-0.617a1.33,1.33,0,0,1-.492.98,1.692,1.692,0,0,1-1.125.379A1.61,1.61,0,0,1,415.451,386.85Zm5.885,0a2.783,2.783,0,0,1-.481-1.735v-0.188a2.843,2.843,0,0,1,.481-1.761,1.752,1.752,0,0,1,2.482-.21,1.58,1.58,0,0,1,.491,1.1h0.618a2.075,2.075,0,0,0-.664-1.5,2.238,2.238,0,0,0-1.576-.57,2.379,2.379,0,0,0-1.313.36,2.314,2.314,0,0,0-.862,1.021,3.624,3.624,0,0,0-.3,1.52v0.193a3.214,3.214,0,0,0,.669,2.138,2.243,2.243,0,0,0,1.812.8,2.461,2.461,0,0,0,1.088-.247,2.091,2.091,0,0,0,.814-0.685,1.822,1.822,0,0,0,.333-0.97h-0.618a1.333,1.333,0,0,1-.491.98,1.7,1.7,0,0,1-1.126.379A1.613,1.613,0,0,1,421.336,386.85Zm5.724,0.027V382.1h-0.639v5.811h0.639l3.136-4.775v4.775h0.645V382.1H430.2Zm7.546-4.78a2.321,2.321,0,0,0-1.534.472,1.563,1.563,0,0,0-.566,1.263,1.719,1.719,0,0,0,.33,1.052,1.616,1.616,0,0,0,.927.6l-1.461,2.422h0.709l1.418-2.342h1.8v2.342h0.645V382.1h-2.272Zm-1.072.87a1.592,1.592,0,0,1,1.056-.322h1.643v2.374H434.38a1.255,1.255,0,0,1-.9-0.339,1.14,1.14,0,0,1-.325-0.838A1.083,1.083,0,0,1,433.534,382.967Zm4.853-.129,1.482,2.116-1.482,2.084h0.569L440.541,385v-0.1l-1.585-2.062h-0.569Zm1.713,0,1.483,2.116-1.483,2.084h0.57L442.254,385v-0.1l-1.584-2.062H440.1Zm6.381-2.75h-0.757l2.959,5.752-0.338.7-0.134.241a1.208,1.208,0,0,1-1.069.682,1.729,1.729,0,0,1-.451-0.037l-0.059.537a1.681,1.681,0,0,0,.5.059,1.816,1.816,0,0,0,1.676-1.015l0.194-.371,3.024-6.547h-0.779l-2.224,5.011Zm12.721,0h-0.666V383.6h-4.469v-3.513h-0.66v7.82h0.66v-3.749h4.469v3.749H459.2v-7.82Zm7.748,0H461.2v7.82h0.661v-7.262h4.425v7.262h0.661v-7.82Zm7.423-.027h-0.108l-2.664.988v0.6l2.127-.79v7.047h0.645v-7.847Zm7.238,3.153a4.091,4.091,0,0,0-.633-2.414,2.317,2.317,0,0,0-3.561.029,4.243,4.243,0,0,0-.613,2.5v1.4a4.167,4.167,0,0,0,.634,2.446,2.073,2.073,0,0,0,1.778.841,2.05,2.05,0,0,0,1.788-.857,4.325,4.325,0,0,0,.607-2.511v-1.434Zm-0.644,1.536a3.822,3.822,0,0,1-.449,2.03,1.447,1.447,0,0,1-1.3.693,1.47,1.47,0,0,1-1.319-.709,3.814,3.814,0,0,1-.454-2.046v-1.536a3.7,3.7,0,0,1,.452-1.982,1.615,1.615,0,0,1,2.634.016,3.814,3.814,0,0,1,.438,2.03v1.5Zm6.93-1.536a4.1,4.1,0,0,0-.634-2.414,2.317,2.317,0,0,0-3.561.029,4.25,4.25,0,0,0-.612,2.5v1.4a4.167,4.167,0,0,0,.633,2.446,2.074,2.074,0,0,0,1.778.841,2.053,2.053,0,0,0,1.789-.857,4.332,4.332,0,0,0,.607-2.511v-1.434Zm-0.645,1.536a3.823,3.823,0,0,1-.448,2.03,1.45,1.45,0,0,1-1.3.693,1.469,1.469,0,0,1-1.318-.709,3.8,3.8,0,0,1-.454-2.046v-1.536a3.687,3.687,0,0,1,.451-1.982,1.615,1.615,0,0,1,2.634.016,3.814,3.814,0,0,1,.438,2.03v1.5Zm3.569-.553h0.645a2.287,2.287,0,0,1,1.48.413,1.465,1.465,0,0,1,.5,1.2,1.6,1.6,0,0,1-.465,1.238,1.844,1.844,0,0,1-1.3.427,1.916,1.916,0,0,1-1.337-.47,1.56,1.56,0,0,1-.521-1.216h-0.645a2.068,2.068,0,0,0,1.222,1.949,2.931,2.931,0,0,0,1.281.28,2.458,2.458,0,0,0,1.751-.613,2.107,2.107,0,0,0,.655-1.616,1.906,1.906,0,0,0-.376-1.185,2.009,2.009,0,0,0-1.106-.7,2.135,2.135,0,0,0,.98-0.711,1.7,1.7,0,0,0,.357-1.04,2.083,2.083,0,0,0-.612-1.589,2.337,2.337,0,0,0-1.676-.581,2.641,2.641,0,0,0-1.2.274,2.065,2.065,0,0,0-.849.777,2.087,2.087,0,0,0-.306,1.109h0.645a1.514,1.514,0,0,1,.481-1.169,1.747,1.747,0,0,1,1.232-.443,1.648,1.648,0,0,1,1.219.425,1.59,1.59,0,0,1,.425,1.176,1.434,1.434,0,0,1-.218.787,1.476,1.476,0,0,1-.631.537,2.232,2.232,0,0,1-.967.2h-0.666V384.2Zm9.39-4.109h-5.14v0.548h4.447l-3.319,7.272h0.671l3.341-7.45v-0.37Zm2.622,4.109h0.645a2.288,2.288,0,0,1,1.48.413,1.465,1.465,0,0,1,.5,1.2,1.6,1.6,0,0,1-.465,1.238,1.844,1.844,0,0,1-1.3.427,1.916,1.916,0,0,1-1.337-.47,1.56,1.56,0,0,1-.521-1.216H501.2a2.068,2.068,0,0,0,1.222,1.949,2.931,2.931,0,0,0,1.281.28,2.459,2.459,0,0,0,1.751-.613,2.107,2.107,0,0,0,.655-1.616,1.906,1.906,0,0,0-.376-1.185,2.009,2.009,0,0,0-1.106-.7,2.135,2.135,0,0,0,.98-0.711,1.7,1.7,0,0,0,.357-1.04,2.083,2.083,0,0,0-.612-1.589,2.337,2.337,0,0,0-1.676-.581,2.641,2.641,0,0,0-1.2.274,2.065,2.065,0,0,0-.849.777,2.087,2.087,0,0,0-.306,1.109h0.645a1.514,1.514,0,0,1,.481-1.169,1.747,1.747,0,0,1,1.232-.443,1.648,1.648,0,0,1,1.219.425,1.59,1.59,0,0,1,.425,1.176,1.434,1.434,0,0,1-.218.787,1.476,1.476,0,0,1-.631.537,2.232,2.232,0,0,1-.967.2h-0.666V384.2Zm7.963,2.417a2.864,2.864,0,0,1-2.133.8h-0.225l-0.006.558h0.118a3.415,3.415,0,0,0,2.756-1.063,4.816,4.816,0,0,0,.9-3.18v-0.58a3.677,3.677,0,0,0-.655-2.339,2.4,2.4,0,0,0-3.064-.473,2.339,2.339,0,0,0-.833.986,3.257,3.257,0,0,0-.3,1.407,3.14,3.14,0,0,0,.279,1.327,2.252,2.252,0,0,0,.79.95,2.048,2.048,0,0,0,1.176.344,2.292,2.292,0,0,0,1.107-.276,2.432,2.432,0,0,0,.854-0.782A3.413,3.413,0,0,1,510.8,386.614Zm-2.334-2.424a2.333,2.333,0,0,1-.47-1.492,2.4,2.4,0,0,1,.489-1.545,1.529,1.529,0,0,1,1.251-.614,1.594,1.594,0,0,1,1.34.656,3.006,3.006,0,0,1,.5,1.846v0.37a2.073,2.073,0,0,1-.728.994,1.888,1.888,0,0,1-1.157.383A1.48,1.48,0,0,1,508.462,384.19Zm8.841-4.161a3.385,3.385,0,0,0-2.713,1.173,4.962,4.962,0,0,0-.956,3.253V385.1a3.1,3.1,0,0,0,.7,2.1,2.3,2.3,0,0,0,1.826.814,2.166,2.166,0,0,0,2.03-1.3,3.218,3.218,0,0,0,.285-1.375,2.759,2.759,0,0,0-.61-1.861,2.051,2.051,0,0,0-1.641-.712,2.509,2.509,0,0,0-1.117.245,2.184,2.184,0,0,0-.822.69,3.458,3.458,0,0,1,.892-2.3,2.944,2.944,0,0,1,2.208-.826h0.075v-0.558H517.3Zm0.077,3.861a2.236,2.236,0,0,1,.465,1.48,2.366,2.366,0,0,1-.465,1.5,1.469,1.469,0,0,1-1.216.6,1.674,1.674,0,0,1-1.362-.644,2.55,2.55,0,0,1-.523-1.663v-0.547a1.737,1.737,0,0,1,.706-0.92,1.985,1.985,0,0,1,1.141-.362A1.545,1.545,0,0,1,517.38,383.89Zm7.084,3.476h-4.109l2.181-2.466a8.846,8.846,0,0,0,1.2-1.622,2.6,2.6,0,0,0,.341-1.2,2,2,0,0,0-.6-1.537,2.364,2.364,0,0,0-1.678-.564,2.519,2.519,0,0,0-1.255.309,2.145,2.145,0,0,0-.848.852,2.45,2.45,0,0,0-.3,1.2h0.639a1.813,1.813,0,0,1,.486-1.311,1.692,1.692,0,0,1,1.276-.5,1.625,1.625,0,0,1,1.2.433,1.579,1.579,0,0,1,.435,1.173,2.122,2.122,0,0,1-.257.972,7.042,7.042,0,0,1-.924,1.268l-2.68,3.04v0.494h4.9v-0.542Z" transform="translate(-316.031 -371.094)"></path>
</svg>